<svg width="48" height="48" viewBox="0 0 48 48" fill="none" xmlns="http://www.w3.org/2000/svg">
<path d="M43.5 7.5H4.5C3.67031 7.5 3 8.17031 3 9V39C3 39.8297 3.67031 40.5 4.5 40.5H43.5C44.3297 40.5 45 39.8297 45 39V9C45 8.17031 44.3297 7.5 43.5 7.5ZM41.625 12.6937V37.125H6.375V12.6937L5.08125 11.6859L6.92344 9.31875L8.92969 10.8797H39.075L41.0813 9.31875L42.9234 11.6859L41.625 12.6937ZM39.075 10.875L24 22.5938L8.925 10.875L6.91875 9.31406L5.07656 11.6812L6.37031 12.6891L22.3828 25.1391C22.8433 25.4968 23.4098 25.691 23.993 25.691C24.5761 25.691 25.1426 25.4968 25.6031 25.1391L41.625 12.6937L42.9187 11.6859L41.0766 9.31875L39.075 10.875Z" fill="black"/>
</svg>
