<svg width="48" height="48" viewBox="0 0 48 48" fill="none" xmlns="http://www.w3.org/2000/svg">
<path d="M24 34L26 30V19.716C29.442 18.822 32 15.716 32 12C32 7.588 28.412 4 24 4C19.588 4 16 7.588 16 12C16 15.716 18.558 18.822 22 19.716V30L24 34ZM20 12C20 9.794 21.794 8 24 8C26.206 8 28 9.794 28 12C28 14.206 26.206 16 24 16C21.794 16 20 14.206 20 12Z" fill="black"/>
<path d="M32.534 21.126L31.468 24.982C36.65 26.414 40 29.168 40 32C40 35.784 33.43 40 24 40C14.57 40 8 35.784 8 32C8 29.168 11.35 26.414 16.534 24.98L15.468 21.124C8.394 23.08 4 27.246 4 32C4 38.728 12.786 44 24 44C35.214 44 44 38.728 44 32C44 27.246 39.606 23.08 32.534 21.126Z" fill="black"/>
</svg>
