<svg width="48" height="48" viewBox="0 0 48 48" fill="none" xmlns="http://www.w3.org/2000/svg">
<path d="M33.1401 43.9998C33.6713 44.0029 34.1977 43.9001 34.6888 43.6975C35.1798 43.4949 35.6256 43.1965 36.0001 42.8198L41.4201 37.3998C41.7926 37.0251 42.0017 36.5182 42.0017 35.9898C42.0017 35.4614 41.7926 34.9545 41.4201 34.5798L33.4201 26.5798C33.0453 26.2073 32.5384 25.9982 32.0101 25.9982C31.4817 25.9982 30.9748 26.2073 30.6001 26.5798L27.4001 29.7598C25.1846 29.1691 23.1327 28.0816 21.4001 26.5798C19.9023 24.8444 18.8153 22.7935 18.2201 20.5798L21.4001 17.3798C21.7726 17.0051 21.9817 16.4982 21.9817 15.9698C21.9817 15.4414 21.7726 14.9345 21.4001 14.5598L13.4001 6.55979C13.0253 6.18729 12.5184 5.97821 11.9901 5.97821C11.4617 5.97821 10.9548 6.18729 10.5801 6.55979L5.18007 11.9998C4.80333 12.3743 4.50496 12.82 4.30236 13.3111C4.09976 13.8021 3.997 14.3286 4.00007 14.8598C4.18151 22.5444 7.25222 29.8784 12.6001 35.3998C18.1215 40.7476 25.4555 43.8183 33.1401 43.9998ZM12.0001 10.8198L17.1801 15.9998L14.6001 18.5798C14.3557 18.8087 14.1727 19.0953 14.0679 19.4133C13.9631 19.7312 13.9397 20.0705 14.0001 20.3998C14.7476 23.7405 16.3303 26.8371 18.6001 29.3998C21.1608 31.6725 24.2581 33.2556 27.6001 33.9998C27.9244 34.0676 28.2605 34.0538 28.5782 33.9595C28.8959 33.8652 29.1852 33.6935 29.4201 33.4598L32.0001 30.8198L37.1801 35.9998L33.1801 39.9998C26.5475 39.829 20.2191 37.1821 15.4401 32.5798C10.8259 27.7988 8.17128 21.462 8.00007 14.8198L12.0001 10.8198ZM40.0001 21.9998H44.0001C44.0519 19.6218 43.6218 17.2579 42.7356 15.0506C41.8493 12.8433 40.5254 10.8383 38.8435 9.15638C37.1616 7.47448 35.1566 6.15053 32.9493 5.2643C30.742 4.37808 28.3781 3.94793 26.0001 3.99979V7.99979C27.8559 7.9356 29.7051 8.25382 31.4327 8.93466C33.1603 9.61551 34.7293 10.6444 36.0424 11.9575C37.3554 13.2705 38.3843 14.8396 39.0652 16.5672C39.746 18.2948 40.0643 20.144 40.0001 21.9998Z" fill="black"/>
<path d="M26 16C30.2 16 32 17.8 32 22H36C36 15.56 32.44 12 26 12V16Z" fill="black"/>
</svg>
